<svg width="24" height="24" viewBox="0 0 24 24" fill="none" xmlns="http://www.w3.org/2000/svg">
<g id="icons/Build/hotel">
<path id="Vector" d="M2 2H22" stroke="#500903" stroke-linecap="round" stroke-linejoin="round"/>
<path id="Vector_2" d="M19 2H5C4.44772 2 4 2.44772 4 3V21C4 21.5523 4.44772 22 5 22H19C19.5523 22 20 21.5523 20 21V3C20 2.44772 19.5523 2 19 2Z" stroke="#500903" stroke-linejoin="round"/>
<path id="Vector_3" d="M10 16H14V22H10V16Z" stroke="#500903" stroke-linecap="round" stroke-linejoin="round"/>
<path id="Vector_4" d="M7.5 6H8.5" stroke="#500903" stroke-linecap="round"/>
<path id="Vector_5" d="M7.5 9H8.5" stroke="#500903" stroke-linecap="round"/>
<path id="Vector_6" d="M11.5 6H12.5" stroke="#500903" stroke-linecap="round"/>
<path id="Vector_7" d="M11.5 9H12.5" stroke="#500903" stroke-linecap="round"/>
<path id="Vector_8" d="M15.5 6H16.5" stroke="#500903" stroke-linecap="round"/>
<path id="Vector_9" d="M15.5 9H16.5" stroke="#500903" stroke-linecap="round"/>
<path id="Vector_10" d="M2 22H22" stroke="#500903" stroke-linecap="round" stroke-linejoin="round"/>
<path id="Vector_11" d="M14 16H15C15.2761 16 15.5049 15.774 15.4522 15.5029C15.1758 14.0827 13.7354 13 12 13C10.2645 13 8.82412 14.0827 8.54777 15.5029C8.49507 15.774 8.72382 16 8.99997 16H9.99997" stroke="#500903" stroke-linecap="round" stroke-linejoin="round"/>
</g>
</svg>
