<svg width="32" height="32" viewBox="0 0 32 32" fill="none" xmlns="http://www.w3.org/2000/svg">
<path d="M25.2933 29.3334H6.62665C2.62665 29.3334 2.62665 27.5334 2.62665 25.3334V24.0001C2.62665 23.2667 3.22665 22.6667 3.95998 22.6667H27.96C28.6933 22.6667 29.2933 23.2667 29.2933 24.0001V25.3334C29.2933 27.5334 29.2933 29.3334 25.2933 29.3334Z" stroke="#322F2A" stroke-width="1.5" stroke-linecap="round" stroke-linejoin="round"/>
<path d="M27.6266 17.3334V22.6667H4.35999V17.3334C4.35999 12.2134 7.97332 7.93341 12.7867 6.90675C13.5067 6.74675 14.2533 6.66675 15.0267 6.66675H16.96C17.7333 6.66675 18.4933 6.74675 19.2133 6.90675C24.0266 7.94675 27.6266 12.2134 27.6266 17.3334Z" stroke="#322F2A" stroke-width="1.5" stroke-linecap="round" stroke-linejoin="round"/>
<path d="M19.3334 6.00008C19.3334 6.32008 19.2934 6.61341 19.2134 6.90675C18.4934 6.74675 17.7334 6.66675 16.96 6.66675H15.0267C14.2534 6.66675 13.5067 6.74675 12.7867 6.90675C12.7067 6.61341 12.6667 6.32008 12.6667 6.00008C12.6667 4.16008 14.16 2.66675 16 2.66675C17.84 2.66675 19.3334 4.16008 19.3334 6.00008Z" stroke="#322F2A" stroke-width="1.5" stroke-linecap="round" stroke-linejoin="round"/>
<path d="M20 14.6667H12" stroke="#322F2A" stroke-width="1.5" stroke-linecap="round" stroke-linejoin="round"/>
</svg>
