<svg width="134" height="60" viewBox="0 0 134 60" fill="none" xmlns="http://www.w3.org/2000/svg">
<path d="M27.4669 1.55197C27.9039 1.291 28.449 1.291 28.8861 1.55197L53.3799 16.1765C53.7983 16.4263 54.0545 16.8777 54.0545 17.365V42.9728C54.0545 43.4649 53.7932 43.9199 53.3683 44.1681L28.8745 58.4706C28.4432 58.7224 27.9097 58.7224 27.4785 58.4706L2.98464 44.1681C2.55969 43.9199 2.29843 43.4649 2.29843 42.9728V17.365C2.29843 16.8777 2.55465 16.4263 2.97302 16.1765L27.4669 1.55197Z" stroke="#500903" stroke-width="1.9375"/>
<path fill-rule="evenodd" clip-rule="evenodd" d="M15.2454 16.1765V17.5608C15.2454 17.5782 15.2533 17.5949 15.2666 17.6061C16.9579 19.0315 17.8105 20.1188 19.0527 22.7306C19.0625 22.7511 19.0833 22.7646 19.106 22.7647C19.0833 22.7648 19.0625 22.7783 19.0527 22.7988C17.8105 25.4106 16.9579 26.4979 15.2666 27.9233C15.2533 27.9345 15.2454 27.9512 15.2454 27.9686V29.3529C15.2454 29.3854 15.2717 29.4118 15.3042 29.4118H17.2787C17.295 29.4118 17.31 29.4057 17.321 29.3937C17.8493 28.8205 18.5866 27.5711 19.4797 26.0575C20.0653 25.065 20.7179 23.9589 21.4226 22.8554C21.4477 22.8162 21.4196 22.7647 21.3731 22.7647C21.4196 22.7647 21.4477 22.7132 21.4226 22.674C20.7179 21.5705 20.0653 20.4644 19.4797 19.4719C18.5865 17.9583 17.8493 16.7089 17.321 16.1357C17.31 16.1237 17.295 16.1176 17.2787 16.1176H15.3042C15.2717 16.1176 15.2454 16.144 15.2454 16.1765Z" fill="#C3731C"/>
<path fill-rule="evenodd" clip-rule="evenodd" d="M10.4219 16.1765V17.5608C10.4219 17.5782 10.414 17.5949 10.4007 17.6061C8.70938 19.0315 7.85679 20.1188 6.61454 22.7306C6.6048 22.7511 6.58395 22.7646 6.56129 22.7647C6.58395 22.7648 6.6048 22.7783 6.61454 22.7988C7.85679 25.4106 8.70938 26.4979 10.4007 27.9233C10.414 27.9345 10.4219 27.9512 10.4219 27.9686V29.3529C10.4219 29.3854 10.3955 29.4118 10.3631 29.4118H8.38854C8.37228 29.4118 8.3573 29.4057 8.34628 29.3937C7.81796 28.8205 7.08073 27.5711 6.18761 26.0575C5.602 25.065 4.94936 23.9589 4.24465 22.8554C4.21961 22.8162 4.24768 22.7647 4.29419 22.7647C4.24768 22.7647 4.21961 22.7132 4.24465 22.674C4.94936 21.5705 5.60199 20.4644 6.18761 19.4719C7.08073 17.9583 7.81796 16.7089 8.34628 16.1357C8.3573 16.1237 8.37228 16.1176 8.38854 16.1176H10.3631C10.3955 16.1176 10.4219 16.144 10.4219 16.1765Z" fill="#C3731C"/>
<path fill-rule="evenodd" clip-rule="evenodd" d="M15.2454 30.6471V32.0314C15.2454 32.0488 15.2533 32.0655 15.2666 32.0766C16.9579 33.5021 17.8105 34.5894 19.0527 37.2012C19.0625 37.2217 19.0834 37.2353 19.1061 37.2353H21.3731C21.4196 37.2353 21.4477 37.1838 21.4226 37.1446C20.7179 36.0411 20.0653 34.935 19.4797 33.9425C18.5865 32.4289 17.8493 31.1795 17.321 30.6063C17.31 30.5943 17.295 30.5882 17.2787 30.5882H15.3042C15.2717 30.5882 15.2454 30.6146 15.2454 30.6471ZM15.2454 43.8235V42.4392C15.2454 42.4218 15.2533 42.4051 15.2666 42.3939C16.9579 40.9685 17.8105 39.8812 19.0527 37.2694C19.0625 37.2489 19.0834 37.2353 19.1061 37.2353H21.3731C21.4196 37.2353 21.4477 37.2868 21.4226 37.326C20.7179 38.4295 20.0653 39.5356 19.4797 40.5281C18.5866 42.0417 17.8493 43.2911 17.321 43.8643C17.31 43.8763 17.295 43.8824 17.2787 43.8824H15.3042C15.2717 43.8824 15.2454 43.856 15.2454 43.8235Z" fill="#C3731C"/>
<path fill-rule="evenodd" clip-rule="evenodd" d="M10.4219 30.6471V32.0314C10.4219 32.0488 10.414 32.0655 10.4007 32.0766C8.70938 33.5021 7.85679 34.5894 6.61454 37.2012C6.60478 37.2217 6.58387 37.2353 6.56115 37.2353H4.29419C4.24768 37.2353 4.21961 37.1838 4.24465 37.1446C4.94936 36.0411 5.602 34.935 6.18761 33.9425C7.08073 32.4289 7.81796 31.1795 8.34628 30.6063C8.3573 30.5943 8.37228 30.5882 8.38854 30.5882H10.3631C10.3955 30.5882 10.4219 30.6146 10.4219 30.6471ZM10.4219 43.8235V42.4392C10.4219 42.4218 10.414 42.4051 10.4007 42.3939C8.70938 40.9685 7.85679 39.8812 6.61454 37.2694C6.60478 37.2489 6.58387 37.2353 6.56115 37.2353H4.29419C4.24768 37.2353 4.21961 37.2868 4.24465 37.326C4.94936 38.4295 5.602 39.5356 6.18761 40.5281C7.08073 42.0417 7.81796 43.2911 8.34628 43.8643C8.3573 43.8763 8.37228 43.8824 8.38854 43.8824H10.3631C10.3955 43.8824 10.4219 43.856 10.4219 43.8235Z" fill="#C3731C"/>
<path fill-rule="evenodd" clip-rule="evenodd" d="M22.3245 17.1765C22.3245 20.2084 24.5956 22.7099 27.5294 23.0725V49.2941H28.9412V47.5294H31.8824V46.2353H28.9412V45.4118H31.8824V44.1176H28.9412V43.2941H31.8824V42.1176H28.9412V23.0797C31.9043 22.7443 34.2068 20.2293 34.2068 17.1765C34.2068 13.8952 31.5469 11.2353 28.2657 11.2353C24.9844 11.2353 22.3245 13.8952 22.3245 17.1765ZM30.6572 39.7961V38.4118C30.6572 38.3793 30.6836 38.3529 30.7161 38.3529H32.6906C32.7068 38.3529 32.7218 38.359 32.7328 38.371C33.2611 38.9442 33.9984 40.1936 34.8915 41.7072C35.4771 42.6997 36.1297 43.8058 36.8345 44.9093C36.8595 44.9485 36.8314 45 36.7849 45C36.8314 45 36.8595 45.0515 36.8345 45.0907C36.1297 46.1942 35.4771 47.3003 34.8915 48.2928L34.8915 48.2928C33.9984 49.8064 33.2611 51.0558 32.7328 51.629C32.7218 51.641 32.7068 51.6471 32.6906 51.6471H30.7161C30.6836 51.6471 30.6572 51.6207 30.6572 51.5882V50.2039C30.6572 50.1865 30.6651 50.1698 30.6784 50.1586C32.3697 48.7332 33.2223 47.6459 34.4646 45.0341C34.4743 45.0136 34.4952 45.0001 34.5178 45C34.4952 44.9999 34.4743 44.9864 34.4646 44.9659C33.2223 42.3541 32.3697 41.2668 30.6784 39.8414C30.6651 39.8302 30.6572 39.8135 30.6572 39.7961ZM25.8337 38.4118V39.7961C25.8337 39.8135 25.8258 39.8302 25.8125 39.8414C24.1212 41.2668 23.2686 42.3541 22.0264 44.9659C22.0166 44.9864 21.9958 44.9999 21.9731 45C21.9958 45.0001 22.0166 45.0136 22.0264 45.0341C23.2686 47.6459 24.1212 48.7332 25.8125 50.1586C25.8258 50.1698 25.8337 50.1865 25.8337 50.2039V51.5882C25.8337 51.6207 25.8074 51.6471 25.7749 51.6471H23.8004C23.7841 51.6471 23.7691 51.641 23.7581 51.629C23.2298 51.0558 22.4926 49.8064 21.5995 48.2929L21.5995 48.2928L21.5994 48.2928C21.0138 47.3003 20.3612 46.1942 19.6565 45.0907C19.6314 45.0515 19.6595 45 19.706 45C19.6595 45 19.6314 44.9485 19.6565 44.9093C20.3612 43.8058 21.0138 42.6997 21.5994 41.7072C22.4926 40.1936 23.2298 38.9442 23.7581 38.371C23.7691 38.359 23.7841 38.3529 23.8004 38.3529H25.7749C25.8074 38.3529 25.8337 38.3793 25.8337 38.4118Z" fill="#7F2203"/>
<path fill-rule="evenodd" clip-rule="evenodd" d="M30.6702 23.9412V25.3255C30.6702 25.3429 30.678 25.3596 30.6913 25.3708C32.3826 26.7962 33.2352 27.8835 34.4775 30.4953C34.4872 30.5158 34.5081 30.5294 34.5308 30.5294C34.5081 30.5294 34.4872 30.543 34.4775 30.5635C33.2352 33.1753 32.3826 34.2626 30.6913 35.688C30.678 35.6992 30.6702 35.7159 30.6702 35.7333V37.1176C30.6702 37.1501 30.6965 37.1765 30.729 37.1765H32.7035C32.7197 37.1765 32.7347 37.1704 32.7457 37.1584C33.2741 36.5852 34.0113 35.3358 34.9044 33.8222C35.49 32.8297 36.1427 31.7236 36.8474 30.6201C36.8724 30.5809 36.8443 30.5294 36.7978 30.5294C36.8443 30.5294 36.8724 30.4779 36.8474 30.4387C36.1427 29.3352 35.49 28.2291 34.9044 27.2366C34.0113 25.723 33.2741 24.4736 32.7457 23.9004C32.7347 23.8884 32.7197 23.8823 32.7035 23.8823H30.729C30.6965 23.8823 30.6702 23.9087 30.6702 23.9412Z" fill="#C3731C"/>
<path fill-rule="evenodd" clip-rule="evenodd" d="M25.8466 23.9412V25.3255C25.8466 25.3429 25.8387 25.3596 25.8254 25.3708C24.1341 26.7962 23.2815 27.8835 22.0393 30.4953C22.0295 30.5158 22.0087 30.5294 21.986 30.5294C22.0087 30.5294 22.0295 30.543 22.0393 30.5635C23.2815 33.1753 24.1341 34.2626 25.8254 35.688C25.8387 35.6992 25.8466 35.7159 25.8466 35.7333V37.1176C25.8466 37.1501 25.8203 37.1765 25.7878 37.1765H23.8133C23.797 37.1765 23.782 37.1704 23.771 37.1584C23.2427 36.5852 22.5055 35.3358 21.6124 33.8222C21.0267 32.8297 20.3741 31.7236 19.6694 30.6201C19.6444 30.5809 19.6724 30.5294 19.7189 30.5294C19.6724 30.5294 19.6444 30.4779 19.6694 30.4387C20.3741 29.3352 21.0267 28.2291 21.6124 27.2366C22.5055 25.723 23.2427 24.4736 23.771 23.9004C23.782 23.8884 23.797 23.8823 23.8133 23.8823H25.7878C25.8203 23.8823 25.8466 23.9087 25.8466 23.9412Z" fill="#C3731C"/>
<path fill-rule="evenodd" clip-rule="evenodd" d="M46.1094 16.1765V17.5608C46.1094 17.5782 46.1173 17.5949 46.1306 17.6061C47.8219 19.0315 48.6745 20.1188 49.9168 22.7306C49.9265 22.7511 49.9474 22.7646 49.97 22.7647C49.9474 22.7648 49.9265 22.7783 49.9168 22.7988C48.6745 25.4106 47.8219 26.4979 46.1306 27.9233C46.1173 27.9345 46.1094 27.9512 46.1094 27.9686V29.3529C46.1094 29.3854 46.1358 29.4118 46.1683 29.4118H48.1428C48.159 29.4118 48.174 29.4057 48.185 29.3937C48.7133 28.8205 49.4506 27.5711 50.3437 26.0575C50.9293 25.065 51.582 23.9589 52.2867 22.8554C52.3117 22.8162 52.2836 22.7647 52.2371 22.7647C52.2836 22.7647 52.3117 22.7132 52.2867 22.674C51.582 21.5705 50.9293 20.4644 50.3437 19.4719C49.4506 17.9583 48.7133 16.7089 48.185 16.1357C48.174 16.1237 48.159 16.1176 48.1428 16.1176H46.1683C46.1358 16.1176 46.1094 16.144 46.1094 16.1765Z" fill="#C3731C"/>
<path fill-rule="evenodd" clip-rule="evenodd" d="M41.2859 16.1765V17.5608C41.2859 17.5782 41.278 17.5949 41.2647 17.6061C39.5734 19.0315 38.7208 20.1188 37.4786 22.7306C37.4688 22.7511 37.448 22.7646 37.4253 22.7647C37.448 22.7648 37.4688 22.7783 37.4786 22.7988C38.7208 25.4106 39.5734 26.4979 41.2647 27.9233C41.278 27.9345 41.2859 27.9512 41.2859 27.9686V29.3529C41.2859 29.3854 41.2596 29.4118 41.2271 29.4118H39.2526C39.2363 29.4118 39.2213 29.4057 39.2103 29.3937C38.682 28.8205 37.9448 27.5711 37.0517 26.0575C36.466 25.065 35.8134 23.9589 35.1087 22.8554C35.0837 22.8162 35.1117 22.7647 35.1582 22.7647C35.1117 22.7647 35.0837 22.7132 35.1087 22.674C35.8134 21.5705 36.466 20.4644 37.0517 19.4719C37.9448 17.9583 38.682 16.7089 39.2103 16.1357C39.2213 16.1237 39.2363 16.1176 39.2526 16.1176H41.2271C41.2596 16.1176 41.2859 16.144 41.2859 16.1765Z" fill="#C3731C"/>
<path fill-rule="evenodd" clip-rule="evenodd" d="M46.1094 30.6471V32.0314C46.1094 32.0488 46.1173 32.0655 46.1306 32.0766C47.8219 33.5021 48.6745 34.5894 49.9168 37.2012C49.9265 37.2217 49.9474 37.2353 49.9702 37.2353H52.2371C52.2836 37.2353 52.3117 37.1838 52.2867 37.1446C51.582 36.0411 50.9293 34.935 50.3437 33.9425C49.4506 32.4289 48.7133 31.1795 48.185 30.6063C48.174 30.5943 48.159 30.5882 48.1428 30.5882H46.1683C46.1358 30.5882 46.1094 30.6146 46.1094 30.6471ZM46.1094 43.8235V42.4392C46.1094 42.4218 46.1173 42.4051 46.1306 42.3939C47.8219 40.9685 48.6745 39.8812 49.9168 37.2694C49.9265 37.2489 49.9474 37.2353 49.9702 37.2353H52.2371C52.2836 37.2353 52.3117 37.2868 52.2867 37.326C51.582 38.4295 50.9293 39.5356 50.3437 40.5281C49.4506 42.0417 48.7133 43.2911 48.185 43.8643C48.174 43.8763 48.159 43.8824 48.1428 43.8824H46.1683C46.1358 43.8824 46.1094 43.856 46.1094 43.8235Z" fill="#C3731C"/>
<path fill-rule="evenodd" clip-rule="evenodd" d="M41.2859 30.6471V32.0314C41.2859 32.0488 41.278 32.0655 41.2647 32.0766C39.5734 33.5021 38.7208 34.5894 37.4786 37.2012C37.4688 37.2217 37.4479 37.2353 37.4252 37.2353H35.1582C35.1117 37.2353 35.0837 37.1838 35.1087 37.1446C35.8134 36.0411 36.466 34.935 37.0517 33.9425C37.9448 32.4289 38.682 31.1795 39.2103 30.6063C39.2213 30.5943 39.2363 30.5882 39.2526 30.5882H41.2271C41.2596 30.5882 41.2859 30.6146 41.2859 30.6471ZM41.2859 43.8235V42.4392C41.2859 42.4218 41.278 42.4051 41.2647 42.3939C39.5734 40.9685 38.7208 39.8812 37.4786 37.2694C37.4688 37.2489 37.4479 37.2353 37.4252 37.2353H35.1582C35.1117 37.2353 35.0837 37.2868 35.1087 37.326C35.8134 38.4295 36.466 39.5356 37.0517 40.5281C37.9448 42.0417 38.682 43.2911 39.2103 43.8643C39.2213 43.8763 39.2363 43.8824 39.2526 43.8824H41.2271C41.2596 43.8824 41.2859 43.856 41.2859 43.8235Z" fill="#C3731C"/>
<path d="M85.4306 23.04V37H82.6306V31.06H76.6506V37H73.8506V23.04H76.6506V28.78H82.6306V23.04H85.4306ZM94.4665 37.14C93.1599 37.14 91.9599 36.8333 90.8665 36.22C89.7732 35.6067 88.9065 34.76 88.2665 33.68C87.6265 32.5867 87.3065 31.3533 87.3065 29.98C87.3065 28.62 87.6265 27.4 88.2665 26.32C88.9065 25.2267 89.7732 24.3733 90.8665 23.76C91.9599 23.1467 93.1599 22.84 94.4665 22.84C95.7865 22.84 96.9865 23.1467 98.0665 23.76C99.1599 24.3733 100.02 25.2267 100.647 26.32C101.287 27.4 101.607 28.62 101.607 29.98C101.607 31.3533 101.287 32.5867 100.647 33.68C100.02 34.76 99.1599 35.6067 98.0665 36.22C96.9732 36.8333 95.7732 37.14 94.4665 37.14ZM94.4665 34.64C95.3065 34.64 96.0465 34.4533 96.6865 34.08C97.3265 33.6933 97.8265 33.1467 98.1865 32.44C98.5465 31.7333 98.7265 30.9133 98.7265 29.98C98.7265 29.0467 98.5465 28.2333 98.1865 27.54C97.8265 26.8333 97.3265 26.2933 96.6865 25.92C96.0465 25.5467 95.3065 25.36 94.4665 25.36C93.6265 25.36 92.8799 25.5467 92.2265 25.92C91.5865 26.2933 91.0865 26.8333 90.7265 27.54C90.3665 28.2333 90.1865 29.0467 90.1865 29.98C90.1865 30.9133 90.3665 31.7333 90.7265 32.44C91.0865 33.1467 91.5865 33.6933 92.2265 34.08C92.8799 34.4533 93.6265 34.64 94.4665 34.64ZM112.99 23.04V25.3H109.27V37H106.47V25.3H102.75V23.04H112.99ZM117.633 25.3V28.8H122.333V31.02H117.633V34.72H122.933V37H114.833V23.02H122.933V25.3H117.633ZM128.077 25.3V28.8H132.777V31.02H128.077V34.72H133.377V37H125.277V23.02H133.377V25.3H128.077Z" fill="#322F2A"/>
</svg>
