<svg width="131" height="54" viewBox="0 0 131 54" fill="none" xmlns="http://www.w3.org/2000/svg">
<g clip-path="url(#clip0_10619_1732)">
<rect y="0.027832" width="53.9443" height="53.9443" rx="3" fill="white"/>
<path d="M26.3841 5.57603C26.7133 5.37946 27.1239 5.37946 27.4531 5.57603L45.9036 16.5922C46.2187 16.7804 46.4117 17.1204 46.4117 17.4875V36.777C46.4117 37.1477 46.2149 37.4905 45.8948 37.6774L27.4444 48.4511C27.1195 48.6408 26.7177 48.6408 26.3928 48.4511L7.94236 37.6774L7.57768 38.302L7.94235 37.6774C7.62225 37.4905 7.42545 37.1477 7.42545 36.777V17.4875C7.42545 17.1204 7.61845 16.7804 7.9336 16.5922L7.55951 15.9657L7.9336 16.5922L26.3841 5.57603Z" stroke="#500903" stroke-width="1.45946"/>
<path fill-rule="evenodd" clip-rule="evenodd" d="M17.178 16.5924V17.6352C17.178 17.6483 17.184 17.6608 17.194 17.6693C18.468 18.743 19.1102 19.5621 20.046 21.5294C20.0533 21.5449 20.0691 21.5551 20.0862 21.5551H21.7938C21.8289 21.5551 21.85 21.5163 21.8311 21.4868C21.3003 20.6555 20.8087 19.8224 20.3676 19.0748C19.6948 17.9346 19.1395 16.9935 18.7415 16.5617C18.7332 16.5527 18.7219 16.5481 18.7097 16.5481H17.2223C17.1979 16.5481 17.178 16.5679 17.178 16.5924ZM17.178 26.5179V25.4751C17.178 25.462 17.184 25.4494 17.194 25.441C18.468 24.3672 19.1102 23.5482 20.046 21.5808C20.0533 21.5654 20.0691 21.5552 20.0862 21.5552H21.7938C21.8289 21.5552 21.85 21.594 21.8312 21.6235C21.3003 22.4547 20.8087 23.2879 20.3676 24.0355C19.6948 25.1757 19.1395 26.1168 18.7415 26.5486C18.7332 26.5576 18.7219 26.5622 18.7097 26.5622H17.2223C17.1979 26.5622 17.178 26.5423 17.178 26.5179Z" fill="#C3731C"/>
<path fill-rule="evenodd" clip-rule="evenodd" d="M13.5446 16.5924V17.6352C13.5446 17.6483 13.5387 17.6608 13.5287 17.6693C12.2547 18.743 11.6124 19.5621 10.6767 21.5294C10.6696 21.5444 10.6546 21.5545 10.6381 21.5551C10.6546 21.5557 10.6695 21.5658 10.6767 21.5807C11.6124 23.5481 12.2546 24.3671 13.5287 25.4409C13.5387 25.4493 13.5446 25.4619 13.5446 25.475V26.5178C13.5446 26.5422 13.5248 26.5621 13.5003 26.5621H12.013C12.0007 26.5621 11.9894 26.5575 11.9811 26.5485C11.5832 26.1167 11.0278 25.1756 10.3551 24.0354C9.91395 23.2878 9.42234 22.4546 8.8915 21.6234C8.87295 21.5944 8.8931 21.5563 8.92711 21.5551C8.8931 21.5539 8.87295 21.5158 8.8915 21.4868C9.42234 20.6555 9.91395 19.8224 10.3551 19.0748C11.0278 17.9346 11.5832 16.9935 11.9811 16.5617C11.9894 16.5527 12.0007 16.5481 12.013 16.5481H13.5003C13.5248 16.5481 13.5446 16.5679 13.5446 16.5924Z" fill="#C3731C"/>
<path fill-rule="evenodd" clip-rule="evenodd" d="M17.178 27.4928V28.5356C17.178 28.5487 17.184 28.5612 17.194 28.5697C18.468 29.6434 19.1102 30.4625 20.046 32.4298C20.0533 32.4453 20.0691 32.4555 20.0862 32.4555L20.0862 32.4555C20.069 32.4555 20.0533 32.4657 20.0459 32.4812C19.1102 34.4486 18.468 35.2676 17.1939 36.3414C17.1839 36.3498 17.178 36.3623 17.178 36.3754V37.4182C17.178 37.4427 17.1978 37.4625 17.2223 37.4625H18.7096C18.7219 37.4625 18.7332 37.458 18.7415 37.4489C19.1394 37.0172 19.6948 36.076 20.3675 34.9358C20.8087 34.1882 21.3003 33.3551 21.8311 32.5239C21.85 32.4943 21.8288 32.4555 21.7938 32.4555L21.7938 32.4555C21.8289 32.4555 21.85 32.4167 21.8311 32.3872C21.3003 31.5559 20.8087 30.7228 20.3676 29.9752C19.6948 28.835 19.1395 27.8939 18.7415 27.4621C18.7332 27.4531 18.7219 27.4485 18.7097 27.4485H17.2223C17.1979 27.4485 17.178 27.4683 17.178 27.4928Z" fill="#C3731C"/>
<path fill-rule="evenodd" clip-rule="evenodd" d="M13.5446 27.4928V28.5356C13.5446 28.5487 13.5386 28.5612 13.5286 28.5697C12.2546 29.6434 11.6124 30.4625 10.6766 32.4298C10.6693 32.4453 10.6535 32.4555 10.6364 32.4555H8.92877C8.89374 32.4555 8.8726 32.4167 8.89146 32.3872C9.42229 31.5559 9.9139 30.7228 10.355 29.9752C11.0278 28.835 11.5831 27.8939 11.9811 27.4621C11.9894 27.4531 12.0007 27.4485 12.0129 27.4485H13.5003C13.5247 27.4485 13.5446 27.4683 13.5446 27.4928ZM13.5446 37.4183V36.3755C13.5446 36.3624 13.5386 36.3498 13.5286 36.3414C12.2546 35.2676 11.6124 34.4486 10.6766 32.4812C10.6693 32.4658 10.6535 32.4555 10.6364 32.4555H8.92877C8.89374 32.4555 8.8726 32.4944 8.89146 32.5239C9.42229 33.3551 9.9139 34.1883 10.355 34.9359C11.0278 36.076 11.5831 37.0172 11.9811 37.449C11.9894 37.458 12.0007 37.4626 12.0129 37.4626H13.5003C13.5247 37.4626 13.5446 37.4427 13.5446 37.4183Z" fill="#C3731C"/>
<path fill-rule="evenodd" clip-rule="evenodd" d="M22.5105 17.3457C22.5105 19.6295 24.2212 21.5138 26.4312 21.787V41.5388H27.4946V40.2105H29.7106V39.2354H27.4946V38.615H29.7106V37.6399H27.4946V37.0195H29.7106V36.133H27.4946V21.7924C29.7267 21.5397 31.4611 19.6452 31.4611 17.3457C31.4611 14.874 29.4574 12.8704 26.9858 12.8704C24.5141 12.8704 22.5105 14.874 22.5105 17.3457ZM28.7873 34.3844V33.3416C28.7873 33.3171 28.8071 33.2973 28.8316 33.2973H30.3189C30.3312 33.2973 30.3424 33.3018 30.3507 33.3108C30.7487 33.7426 31.304 34.6838 31.9768 35.8239L31.9768 35.824C32.4179 36.5716 32.9095 37.4047 33.4404 38.2359C33.459 38.2651 33.4386 38.3034 33.4043 38.3043C33.4386 38.3051 33.459 38.3434 33.4404 38.3726C32.9095 39.2038 32.4179 40.037 31.9768 40.7846C31.304 41.9247 30.7487 42.8659 30.3507 43.2977C30.3424 43.3067 30.3312 43.3113 30.3189 43.3113H28.8316C28.8071 43.3113 28.7873 43.2914 28.7873 43.267V42.2242C28.7873 42.2111 28.7932 42.1985 28.8032 42.1901C30.0772 41.1163 30.7195 40.2973 31.6552 38.3299C31.6624 38.3148 31.6776 38.3047 31.6943 38.3043C31.6776 38.3038 31.6624 38.2937 31.6552 38.2786C30.7195 36.3112 30.0772 35.4922 28.8032 34.4184C28.7932 34.41 28.7873 34.3974 28.7873 34.3844ZM25.1538 33.3416V34.3844C25.1538 34.3974 25.1479 34.41 25.1379 34.4184C23.8639 35.4922 23.2216 36.3112 22.2859 38.2786C22.2788 38.2935 22.2639 38.3035 22.2476 38.3042C22.2639 38.305 22.2788 38.315 22.2859 38.3299C23.2216 40.2972 23.8639 41.1163 25.1379 42.19C25.1479 42.1985 25.1538 42.211 25.1538 42.2241V43.2669C25.1538 43.2914 25.134 43.3112 25.1095 43.3112H23.6222C23.6099 43.3112 23.5986 43.3066 23.5903 43.2976C23.1924 42.8658 22.637 41.9247 21.9643 40.7845C21.5232 40.0369 21.0315 39.2038 20.5007 38.3725C20.4822 38.3436 20.5022 38.3057 20.536 38.3042C20.5022 38.3028 20.4822 38.2649 20.5007 38.2359C21.0316 37.4047 21.5232 36.5716 21.9643 35.824L21.9643 35.8239C22.6371 34.6838 23.1924 33.7426 23.5904 33.3108C23.5987 33.3018 23.61 33.2973 23.6222 33.2973H25.1095C25.134 33.2973 25.1538 33.3171 25.1538 33.3416Z" fill="#7F2203"/>
<path fill-rule="evenodd" clip-rule="evenodd" d="M28.797 22.4413V23.4841C28.797 23.4972 28.8029 23.5097 28.813 23.5181C30.087 24.5919 30.7292 25.411 31.665 27.3783C31.6723 27.3938 31.6881 27.404 31.7052 27.404H33.4128C33.4478 27.404 33.469 27.3652 33.4501 27.3357C32.9193 26.5044 32.4277 25.6713 31.9865 24.9237C31.3138 23.7835 30.7584 22.8423 30.3605 22.4106C30.3522 22.4016 30.3409 22.397 30.3287 22.397H28.8413C28.8168 22.397 28.797 22.4168 28.797 22.4413ZM28.797 32.3667V31.3239C28.797 31.3108 28.8029 31.2983 28.8129 31.2899C30.087 30.2161 30.7292 29.397 31.6649 27.4297C31.6723 27.4142 31.6881 27.404 31.7052 27.404H33.4128C33.4478 27.404 33.469 27.4428 33.4501 27.4724C32.9193 28.3036 32.4277 29.1367 31.9865 29.8843C31.3138 31.0245 30.7584 31.9657 30.3605 32.3974C30.3522 32.4064 30.3409 32.411 30.3286 32.411H28.8413C28.8168 32.411 28.797 32.3912 28.797 32.3667Z" fill="#C3731C"/>
<path fill-rule="evenodd" clip-rule="evenodd" d="M25.1636 22.4413V23.4841C25.1636 23.4972 25.1576 23.5097 25.1476 23.5181C23.8736 24.5919 23.2314 25.411 22.2956 27.3783C22.2885 27.3934 22.2733 27.4035 22.2567 27.404C22.2733 27.4045 22.2884 27.4146 22.2956 27.4296C23.2313 29.397 23.8736 30.216 25.1476 31.2898C25.1576 31.2982 25.1635 31.3108 25.1635 31.3239V32.3667C25.1635 32.3911 25.1437 32.411 25.1192 32.411H23.6319C23.6196 32.411 23.6084 32.4064 23.6001 32.3974C23.2021 31.9656 22.6468 31.0245 21.974 29.8843C21.5329 29.1367 21.0413 28.3035 20.5104 27.4723C20.4918 27.4432 20.5122 27.405 20.5464 27.404C20.5122 27.4029 20.4919 27.3648 20.5105 27.3357C21.0413 26.5044 21.5329 25.6713 21.974 24.9237C22.6468 23.7835 23.2021 22.8423 23.6001 22.4106C23.6084 22.4016 23.6197 22.397 23.6319 22.397H25.1193C25.1438 22.397 25.1636 22.4168 25.1636 22.4413Z" fill="#C3731C"/>
<path fill-rule="evenodd" clip-rule="evenodd" d="M40.4269 16.5924V17.6352C40.4269 17.6483 40.4328 17.6608 40.4428 17.6693C41.7169 18.743 42.3591 19.5621 43.2948 21.5294C43.3019 21.5443 43.3167 21.5543 43.333 21.5551C43.3167 21.5559 43.3019 21.5659 43.2949 21.5807C42.3591 23.5481 41.7169 24.3671 40.4429 25.4409C40.4329 25.4493 40.4269 25.4619 40.4269 25.4749V26.5177C40.4269 26.5422 40.4468 26.562 40.4712 26.562H41.9586C41.9708 26.562 41.9821 26.5575 41.9904 26.5485C42.3884 26.1167 42.9437 25.1755 43.6165 24.0354C44.0576 23.2878 44.5492 22.4546 45.08 21.6234C45.0985 21.5944 45.0786 21.5566 45.0448 21.5551C45.0786 21.5535 45.0985 21.5157 45.08 21.4868C44.5492 20.6555 44.0576 19.8224 43.6164 19.0748C42.9437 17.9346 42.3883 16.9935 41.9904 16.5617C41.9821 16.5527 41.9708 16.5481 41.9585 16.5481H40.4712C40.4467 16.5481 40.4269 16.5679 40.4269 16.5924Z" fill="#C3731C"/>
<path fill-rule="evenodd" clip-rule="evenodd" d="M36.7935 16.5924V17.6352C36.7935 17.6483 36.7875 17.6608 36.7775 17.6693C35.5035 18.743 34.8613 19.5621 33.9255 21.5294C33.9182 21.5449 33.9024 21.5551 33.8853 21.5551H32.1777C32.1427 21.5551 32.1215 21.5163 32.1404 21.4868C32.6712 20.6555 33.1628 19.8224 33.604 19.0748C34.2767 17.9346 34.832 16.9935 35.23 16.5617C35.2383 16.5527 35.2496 16.5481 35.2618 16.5481H36.7492C36.7737 16.5481 36.7935 16.5679 36.7935 16.5924ZM36.7935 26.5179V25.4751C36.7935 25.462 36.7876 25.4494 36.7776 25.441C35.5035 24.3672 34.8613 23.5482 33.9256 21.5808C33.9182 21.5654 33.9024 21.5552 33.8853 21.5552H32.1777C32.1427 21.5552 32.1215 21.594 32.1404 21.6235C32.6712 22.4547 33.1628 23.2879 33.604 24.0355C34.2767 25.1757 34.8321 26.1168 35.23 26.5486C35.2383 26.5576 35.2496 26.5622 35.2619 26.5622H36.7492C36.7737 26.5622 36.7935 26.5423 36.7935 26.5179Z" fill="#C3731C"/>
<path fill-rule="evenodd" clip-rule="evenodd" d="M40.4269 27.4928V28.5356C40.4269 28.5487 40.4328 28.5612 40.4428 28.5697C41.7169 29.6434 42.3591 30.4625 43.2948 32.4298C43.3019 32.4447 43.3168 32.4547 43.3331 32.4555C43.3168 32.4562 43.3019 32.4662 43.2949 32.4811C42.3591 34.4485 41.7169 35.2675 40.4429 36.3413C40.4329 36.3497 40.4269 36.3623 40.4269 36.3753V37.4181C40.4269 37.4426 40.4467 37.4624 40.4712 37.4624H41.9586C41.9708 37.4624 41.9821 37.4579 41.9904 37.4489C42.3884 37.0171 42.9437 36.0759 43.6164 34.9358C44.0576 34.1882 44.5492 33.355 45.08 32.5238C45.0985 32.4948 45.0785 32.4569 45.0447 32.4555C45.0785 32.454 45.0985 32.4161 45.08 32.3872C44.5492 31.5559 44.0576 30.7228 43.6164 29.9752C42.9437 28.835 42.3883 27.8939 41.9904 27.4621C41.9821 27.4531 41.9708 27.4485 41.9585 27.4485H40.4712C40.4467 27.4485 40.4269 27.4683 40.4269 27.4928Z" fill="#C3731C"/>
<path fill-rule="evenodd" clip-rule="evenodd" d="M36.7935 27.4928V28.5356C36.7935 28.5487 36.7875 28.5612 36.7775 28.5697C35.5035 29.6434 34.8613 30.4625 33.9255 32.4298C33.9182 32.4453 33.9024 32.4555 33.8853 32.4555H32.1777C32.1426 32.4555 32.1215 32.4167 32.1404 32.3872C32.6712 31.5559 33.1628 30.7228 33.6039 29.9752C34.2767 28.835 34.832 27.8939 35.23 27.4621C35.2383 27.4531 35.2496 27.4485 35.2618 27.4485H36.7492C36.7736 27.4485 36.7935 27.4683 36.7935 27.4928ZM36.7935 37.4183V36.3754C36.7935 36.3624 36.7876 36.3498 36.7776 36.3414C35.5035 35.2676 34.8613 34.4486 33.9256 32.4812C33.9182 32.4658 33.9024 32.4555 33.8853 32.4555H32.1777C32.1427 32.4555 32.1215 32.4944 32.1404 32.5239C32.6712 33.3551 33.1628 34.1883 33.604 34.9359C34.2767 36.076 34.8321 37.0172 35.23 37.449C35.2383 37.458 35.2496 37.4626 35.2619 37.4626H36.7492C36.7737 37.4626 36.7935 37.4427 36.7935 37.4183Z" fill="#C3731C"/>
</g>
<path d="M82.9043 20.04V34H80.1043V28.06H74.1243V34H71.3243V20.04H74.1243V25.78H80.1043V20.04H82.9043ZM91.9403 34.14C90.6336 34.14 89.4336 33.8333 88.3403 33.22C87.2469 32.6067 86.3803 31.76 85.7403 30.68C85.1003 29.5867 84.7803 28.3533 84.7803 26.98C84.7803 25.62 85.1003 24.4 85.7403 23.32C86.3803 22.2267 87.2469 21.3733 88.3403 20.76C89.4336 20.1467 90.6336 19.84 91.9403 19.84C93.2603 19.84 94.4603 20.1467 95.5403 20.76C96.6336 21.3733 97.4936 22.2267 98.1203 23.32C98.7603 24.4 99.0803 25.62 99.0803 26.98C99.0803 28.3533 98.7603 29.5867 98.1203 30.68C97.4936 31.76 96.6336 32.6067 95.5403 33.22C94.4469 33.8333 93.2469 34.14 91.9403 34.14ZM91.9403 31.64C92.7803 31.64 93.5203 31.4533 94.1603 31.08C94.8003 30.6933 95.3003 30.1467 95.6603 29.44C96.0203 28.7333 96.2003 27.9133 96.2003 26.98C96.2003 26.0467 96.0203 25.2333 95.6603 24.54C95.3003 23.8333 94.8003 23.2933 94.1603 22.92C93.5203 22.5467 92.7803 22.36 91.9403 22.36C91.1003 22.36 90.3536 22.5467 89.7003 22.92C89.0603 23.2933 88.5603 23.8333 88.2003 24.54C87.8403 25.2333 87.6603 26.0467 87.6603 26.98C87.6603 27.9133 87.8403 28.7333 88.2003 29.44C88.5603 30.1467 89.0603 30.6933 89.7003 31.08C90.3536 31.4533 91.1003 31.64 91.9403 31.64ZM110.463 20.04V22.3H106.743V34H103.943V22.3H100.223V20.04H110.463ZM115.106 22.3V25.8H119.806V28.02H115.106V31.72H120.406V34H112.306V20.02H120.406V22.3H115.106ZM125.551 22.3V25.8H130.251V28.02H125.551V31.72H130.851V34H122.751V20.02H130.851V22.3H125.551Z" fill="#FCFDFF"/>
<defs>
<clipPath id="clip0_10619_1732">
<rect y="0.027832" width="53.9443" height="53.9443" rx="3" fill="white"/>
</clipPath>
</defs>
</svg>
